<svg xmlns="http://www.w3.org/2000/svg" xmlns:xlink="http://www.w3.org/1999/xlink" width="500" zoomAndPan="magnify" viewBox="0 0 375 374.999991" height="500" preserveAspectRatio="xMidYMid meet" version="1.0"><defs><g/><clipPath id="f72091f592"><path d="M 74.699219 158 L 117 158 L 117 167 L 74.699219 167 Z M 74.699219 158 " clip-rule="nonzero"/></clipPath><clipPath id="1f56eeee22"><path d="M 74.699219 218.683594 L 116.175781 218.683594 L 116.175781 226.679688 L 74.699219 226.679688 Z M 74.699219 218.683594 " clip-rule="nonzero"/></clipPath><clipPath id="c2d943864f"><path d="M 131.554688 144.761719 L 169.164062 144.761719 L 169.164062 224.835938 L 131.554688 224.835938 Z M 131.554688 144.761719 " clip-rule="nonzero"/></clipPath></defs><g fill="#68bd71" fill-opacity="1"><g transform="translate(37.500002, 225.558448)"><g><path d="M 7.296875 -95.15625 L 31 -95.15625 L 31 0 L 7.296875 0 Z M 7.296875 -95.15625 "/></g></g></g><g fill="#68bd71" fill-opacity="1"><g transform="translate(75.786488, 225.558448)"><g><path d="M 7.296875 -65.3125 L 31 -65.3125 L 31 0 L 7.296875 0 Z M 9.09375 -93.5 L 28.6875 -93.5 L 28.6875 -78.25 L 9.09375 -78.25 Z M 9.09375 -93.5 "/></g></g></g><g fill="#68bd71" fill-opacity="1"><g transform="translate(114.072974, 225.558448)"><g><path d="M 44.3125 -30.859375 C 44.3125 -35.390625 44.269531 -38.378906 44.1875 -39.828125 C 44.019531 -42.222656 43.804688 -43.804688 43.546875 -44.578125 C 43.203125 -45.429688 42.601562 -45.960938 41.75 -46.171875 C 40.894531 -46.390625 39.53125 -46.5 37.65625 -46.5 L 36.375 -46.5 L 36.375 -62.5 C 39.707031 -64.976562 44.0625 -66.21875 49.4375 -66.21875 C 57.125 -66.21875 62.289062 -63.867188 64.9375 -59.171875 C 66.132812 -57.117188 66.945312 -54.617188 67.375 -51.671875 C 67.800781 -48.734375 68.015625 -45.128906 68.015625 -40.859375 L 68.015625 0 L 44.3125 0 Z M 7.296875 -65.3125 L 31 -65.3125 L 31 0 L 7.296875 0 Z M 7.296875 -65.3125 "/></g></g></g><g fill="#68bd71" fill-opacity="1"><g transform="translate(189.365458, 225.558448)"><g><path d="M 43.796875 -32.53125 C 43.796875 -36.882812 43.753906 -39.785156 43.671875 -41.234375 C 43.585938 -43.285156 43.332031 -44.84375 42.90625 -45.90625 C 42.476562 -46.976562 41.796875 -47.644531 40.859375 -47.90625 C 39.828125 -48.15625 38.414062 -48.28125 36.625 -48.28125 L 34.84375 -48.28125 L 34.84375 -66.34375 L 36.625 -66.34375 C 44.050781 -66.34375 49.859375 -65.765625 54.046875 -64.609375 C 58.234375 -63.460938 61.351562 -61.566406 63.40625 -58.921875 C 65.28125 -56.523438 66.492188 -53.34375 67.046875 -49.375 C 67.597656 -45.40625 67.875 -39.789062 67.875 -32.53125 C 67.875 -25.78125 67.679688 -20.546875 67.296875 -16.828125 C 66.921875 -13.117188 66.003906 -10.070312 64.546875 -7.6875 C 62.929688 -5.039062 60.5 -3.054688 57.25 -1.734375 C 54.007812 -0.410156 49.523438 0.421875 43.796875 0.765625 Z M 36.625 1.03125 C 29.195312 1.03125 23.390625 0.472656 19.203125 -0.640625 C 15.023438 -1.753906 11.910156 -3.632812 9.859375 -6.28125 C 7.984375 -8.664062 6.765625 -11.820312 6.203125 -15.75 C 5.648438 -19.675781 5.375 -25.269531 5.375 -32.53125 C 5.375 -39.1875 5.585938 -44.394531 6.015625 -48.15625 C 6.441406 -51.914062 7.382812 -55.03125 8.84375 -57.5 C 10.375 -60.238281 12.757812 -62.269531 16 -63.59375 C 19.25 -64.914062 23.734375 -65.75 29.453125 -66.09375 L 29.453125 -32.53125 C 29.453125 -28.175781 29.5 -25.316406 29.59375 -23.953125 C 29.675781 -21.898438 29.929688 -20.359375 30.359375 -19.328125 C 30.785156 -18.304688 31.507812 -17.671875 32.53125 -17.421875 C 33.382812 -17.160156 34.75 -17.03125 36.625 -17.03125 L 38.421875 -17.03125 L 38.421875 1.03125 Z M 36.625 1.03125 "/></g></g></g><g fill="#68bd71" fill-opacity="1"><g transform="translate(262.609146, 225.558448)"><g><path d="M 44.3125 -30.859375 C 44.3125 -35.390625 44.269531 -38.378906 44.1875 -39.828125 C 44.019531 -42.222656 43.804688 -43.804688 43.546875 -44.578125 C 43.203125 -45.429688 42.601562 -45.960938 41.75 -46.171875 C 40.894531 -46.390625 39.53125 -46.5 37.65625 -46.5 L 36.375 -46.5 L 36.375 -62.5 C 39.707031 -64.976562 44.0625 -66.21875 49.4375 -66.21875 C 57.125 -66.21875 62.289062 -63.867188 64.9375 -59.171875 C 66.132812 -57.117188 66.945312 -54.617188 67.375 -51.671875 C 67.800781 -48.734375 68.015625 -45.128906 68.015625 -40.859375 L 68.015625 0 L 44.3125 0 Z M 7.296875 -65.3125 L 31 -65.3125 L 31 0 L 7.296875 0 Z M 7.296875 -65.3125 "/></g></g></g><path fill="#83827c" d="M 134.589844 141.890625 C 134.367188 142.40625 133.53125 143.550781 132.574219 144.777344 C 132.574219 144.777344 132.574219 144.78125 132.570312 144.78125 C 132.292969 145.140625 132.003906 145.507812 131.722656 145.867188 C 130.363281 147.574219 129.042969 149.136719 129.042969 149.136719 C 129.042969 149.136719 130.648438 142.578125 133.8125 140.558594 C 133.8125 140.558594 134.117188 140.546875 134.378906 140.679688 C 134.539062 140.761719 134.675781 140.894531 134.71875 141.113281 C 134.765625 141.300781 134.738281 141.554688 134.589844 141.890625 Z M 136.320312 140.183594 C 136.304688 139.984375 136.261719 139.804688 136.183594 139.636719 C 136.070312 139.375 135.875 139.160156 135.601562 139 C 133.03125 137.53125 131.5625 139.179688 128.261719 146.335938 C 124.957031 153.488281 111.476562 174.949219 111.476562 174.949219 L 111.476562 177.519531 C 112.488281 175.136719 128.261719 152.9375 130.828125 150.003906 C 131.078125 149.726562 131.347656 149.40625 131.628906 149.066406 C 131.804688 148.84375 131.992188 148.613281 132.179688 148.371094 C 134.199219 145.785156 136.53125 142.179688 136.320312 140.183594 " fill-opacity="1" fill-rule="nonzero"/><path fill="#68bd71" d="M 111.476562 218.703125 L 79.011719 218.703125 L 79.011719 166.972656 L 111.476562 166.972656 L 111.476562 218.703125 " fill-opacity="1" fill-rule="nonzero"/><g clip-path="url(#f72091f592)"><path fill="#606662" d="M 116.15625 158.996094 L 74.699219 158.996094 L 79.011719 166.972656 L 111.476562 166.972656 L 116.15625 158.996094 " fill-opacity="1" fill-rule="nonzero"/></g><g clip-path="url(#1f56eeee22)"><path fill="#606662" d="M 74.699219 226.679688 L 116.15625 226.679688 L 111.84375 218.703125 L 79.378906 218.703125 L 74.699219 226.679688 " fill-opacity="1" fill-rule="nonzero"/></g><path fill="#606662" d="M 79.675781 179.203125 Z M 79.121094 216.292969 L 78.898438 215.789062 L 110.433594 201.894531 L 79.472656 198.394531 C 79.289062 198.375 79.148438 198.234375 79.121094 198.050781 C 79.09375 197.863281 79.195312 197.691406 79.367188 197.625 L 110.210938 185.078125 L 79 183.664062 L 79.011719 183.117188 L 107.402344 183.117188 L 79.609375 179.347656 C 79.433594 179.324219 79.304688 179.171875 79.308594 178.996094 C 79.3125 178.8125 79.445312 178.671875 79.625 178.65625 L 108.421875 176.054688 L 79.484375 173.4375 C 79.320312 173.421875 79.191406 173.285156 79.191406 173.117188 C 79.1875 172.949219 79.3125 172.808594 79.480469 172.792969 L 111.449219 169.359375 L 111.507812 169.90625 L 81.804688 173.09375 L 111.503906 175.777344 L 111.503906 176.328125 L 81.460938 179.042969 L 111.515625 183.117188 L 111.476562 183.667969 L 91.191406 183.667969 L 111.027344 184.5625 C 111.207031 184.570312 111.351562 184.699219 111.382812 184.875 C 111.414062 185.050781 111.320312 185.21875 111.152344 185.285156 L 80.113281 197.914062 L 110.964844 201.398438 C 111.160156 201.421875 111.308594 201.5625 111.335938 201.753906 C 111.367188 201.945312 111.265625 202.128906 111.089844 202.207031 L 79.121094 216.292969 " fill-opacity="1" fill-rule="nonzero"/><path fill="#606662" d="M 134.71875 141.113281 C 134.292969 141.488281 133.179688 142.621094 132.574219 144.777344 C 132.574219 144.777344 132.574219 144.785156 132.570312 144.785156 C 132.292969 145.140625 132.003906 145.507812 131.722656 145.867188 C 132.207031 142.726562 133.796875 141.15625 134.378906 140.679688 C 134.539062 140.761719 134.675781 140.894531 134.71875 141.113281 " fill-opacity="1" fill-rule="nonzero"/><g clip-path="url(#c2d943864f)"><path fill="#606662" d="M 169.164062 224.664062 C 168.488281 224.769531 167.835938 224.820312 167.214844 224.820312 C 159.402344 224.820312 155.617188 216.9375 151.625 208.625 C 149.109375 203.390625 146.511719 197.980469 142.792969 194.464844 C 137.140625 189.121094 137.195312 182.535156 137.25 175.554688 C 137.296875 169.925781 137.34375 164.105469 134.496094 158.324219 C 132.632812 154.5625 131.824219 151.507812 131.628906 149.066406 C 131.527344 147.855469 131.578125 146.792969 131.722656 145.867188 C 132.003906 145.507812 132.292969 145.140625 132.570312 144.785156 C 132.292969 145.761719 132.128906 146.953125 132.179688 148.371094 C 132.253906 150.859375 132.992188 154.050781 134.984375 158.085938 C 137.894531 163.976562 137.84375 169.867188 137.800781 175.5625 C 137.746094 182.414062 137.695312 188.890625 143.171875 194.0625 C 146.964844 197.652344 149.582031 203.109375 152.121094 208.386719 C 156.339844 217.167969 160.324219 225.46875 169.082031 224.121094 L 169.164062 224.664062 " fill-opacity="1" fill-rule="nonzero"/></g><path fill="#606662" d="M 165.40625 160.015625 L 164.964844 160.347656 C 164.910156 160.273438 159.628906 153.363281 152.875 155.21875 L 151.828125 155.507812 C 148.351562 156.476562 145.835938 157.183594 143.898438 155.972656 C 142.226562 154.925781 141.109375 152.464844 140.289062 147.984375 C 139.121094 141.679688 137.734375 140.351562 137.007812 140.121094 C 136.710938 140.027344 136.46875 140.105469 136.320312 140.183594 C 136.304688 139.984375 136.261719 139.804688 136.183594 139.636719 C 136.429688 139.539062 136.773438 139.472656 137.175781 139.597656 C 138.671875 140.074219 139.902344 142.859375 140.828125 147.886719 C 141.621094 152.203125 142.660156 154.550781 144.191406 155.503906 C 145.917969 156.585938 148.335938 155.910156 151.679688 154.980469 L 152.730469 154.6875 C 159.839844 152.734375 165.351562 159.945312 165.40625 160.015625 " fill-opacity="1" fill-rule="nonzero"/><path fill="#a09f9c" d="M 129.1875 145.953125 C 128.921875 147.136719 128.472656 148.246094 127.960938 149.328125 C 127.695312 149.863281 127.414062 150.394531 127.089844 150.902344 C 126.765625 151.40625 126.414062 151.90625 125.964844 152.316406 L 126.710938 150.695312 C 126.957031 150.15625 127.214844 149.625 127.464844 149.085938 C 127.992188 148.023438 128.523438 146.964844 129.1875 145.953125 " fill-opacity="1" fill-rule="nonzero"/></svg>