<svg xmlns="http://www.w3.org/2000/svg" xmlns:xlink="http://www.w3.org/1999/xlink" width="500" zoomAndPan="magnify" viewBox="0 0 375 374.999991" height="500" preserveAspectRatio="xMidYMid meet" version="1.0"><defs><g/><clipPath id="e0b9ffd457"><path d="M 73.234375 148 L 138.484375 148 L 138.484375 213 L 73.234375 213 Z M 73.234375 148 " clip-rule="nonzero"/></clipPath><clipPath id="5f14f6ec1f"><path d="M 84 148 L 121 148 L 121 217.558594 L 84 217.558594 Z M 84 148 " clip-rule="nonzero"/></clipPath><clipPath id="f7a886c779"><path d="M 73.234375 159 L 134 159 L 134 192 L 73.234375 192 Z M 73.234375 159 " clip-rule="nonzero"/></clipPath></defs><g fill="#cf1010" fill-opacity="1"><g transform="translate(51.091038, 215.75748)"><g><path d="M 6.625 -86.40625 L 28.140625 -86.40625 L 28.140625 0 L 6.625 0 Z M 6.625 -86.40625 "/></g></g></g><g fill="#cf1010" fill-opacity="1"><g transform="translate(85.858659, 215.75748)"><g><path d="M 6.625 -59.3125 L 28.140625 -59.3125 L 28.140625 0 L 6.625 0 Z M 8.265625 -84.890625 L 26.0625 -84.890625 L 26.0625 -71.0625 L 8.265625 -71.0625 Z M 8.265625 -84.890625 "/></g></g></g><g fill="#cf1010" fill-opacity="1"><g transform="translate(120.626279, 215.75748)"><g><path d="M 40.234375 -28.03125 C 40.234375 -32.132812 40.195312 -34.847656 40.125 -36.171875 C 39.96875 -38.335938 39.773438 -39.769531 39.546875 -40.46875 C 39.234375 -41.25 38.6875 -41.734375 37.90625 -41.921875 C 37.132812 -42.117188 35.894531 -42.21875 34.1875 -42.21875 L 33.03125 -42.21875 L 33.03125 -56.75 C 36.050781 -59 40.003906 -60.125 44.890625 -60.125 C 51.867188 -60.125 56.5625 -57.992188 58.96875 -53.734375 C 60.050781 -51.867188 60.785156 -49.597656 61.171875 -46.921875 C 61.554688 -44.242188 61.75 -40.96875 61.75 -37.09375 L 61.75 0 L 40.234375 0 Z M 6.625 -59.3125 L 28.140625 -59.3125 L 28.140625 0 L 6.625 0 Z M 6.625 -59.3125 "/></g></g></g><g fill="#cf1010" fill-opacity="1"><g transform="translate(188.998721, 215.75748)"><g><path d="M 39.78125 -29.546875 C 39.78125 -33.492188 39.738281 -36.128906 39.65625 -37.453125 C 39.582031 -39.304688 39.347656 -40.71875 38.953125 -41.6875 C 38.566406 -42.65625 37.945312 -43.257812 37.09375 -43.5 C 36.164062 -43.726562 34.890625 -43.84375 33.265625 -43.84375 L 31.625 -43.84375 L 31.625 -60.234375 L 33.265625 -60.234375 C 40.003906 -60.234375 45.273438 -59.710938 49.078125 -58.671875 C 52.878906 -57.628906 55.707031 -55.90625 57.5625 -53.5 C 59.269531 -51.320312 60.375 -48.429688 60.875 -44.828125 C 61.382812 -41.222656 61.640625 -36.128906 61.640625 -29.546875 C 61.640625 -23.421875 61.460938 -18.671875 61.109375 -15.296875 C 60.765625 -11.921875 59.929688 -9.148438 58.609375 -6.984375 C 57.140625 -4.578125 54.929688 -2.769531 51.984375 -1.5625 C 49.035156 -0.363281 44.96875 0.390625 39.78125 0.703125 Z M 33.265625 0.9375 C 26.515625 0.9375 21.238281 0.429688 17.4375 -0.578125 C 13.644531 -1.585938 10.816406 -3.296875 8.953125 -5.703125 C 7.242188 -7.867188 6.140625 -10.734375 5.640625 -14.296875 C 5.140625 -17.867188 4.890625 -22.953125 4.890625 -29.546875 C 4.890625 -35.585938 5.082031 -40.3125 5.46875 -43.71875 C 5.851562 -47.132812 6.707031 -49.96875 8.03125 -52.21875 C 9.425781 -54.695312 11.59375 -56.535156 14.53125 -57.734375 C 17.476562 -58.941406 21.550781 -59.703125 26.75 -60.015625 L 26.75 -29.546875 C 26.75 -25.585938 26.785156 -22.988281 26.859375 -21.75 C 26.941406 -19.882812 27.175781 -18.488281 27.5625 -17.5625 C 27.945312 -16.632812 28.609375 -16.050781 29.546875 -15.8125 C 30.316406 -15.582031 31.554688 -15.46875 33.265625 -15.46875 L 34.890625 -15.46875 L 34.890625 0.9375 Z M 33.265625 0.9375 "/></g></g></g><g fill="#cf1010" fill-opacity="1"><g transform="translate(255.510669, 215.75748)"><g><path d="M 40.234375 -28.03125 C 40.234375 -32.132812 40.195312 -34.847656 40.125 -36.171875 C 39.96875 -38.335938 39.773438 -39.769531 39.546875 -40.46875 C 39.234375 -41.25 38.6875 -41.734375 37.90625 -41.921875 C 37.132812 -42.117188 35.894531 -42.21875 34.1875 -42.21875 L 33.03125 -42.21875 L 33.03125 -56.75 C 36.050781 -59 40.003906 -60.125 44.890625 -60.125 C 51.867188 -60.125 56.5625 -57.992188 58.96875 -53.734375 C 60.050781 -51.867188 60.785156 -49.597656 61.171875 -46.921875 C 61.554688 -44.242188 61.75 -40.96875 61.75 -37.09375 L 61.75 0 L 40.234375 0 Z M 6.625 -59.3125 L 28.140625 -59.3125 L 28.140625 0 L 6.625 0 Z M 6.625 -59.3125 "/></g></g></g><g clip-path="url(#e0b9ffd457)"><path fill="#ff3131" d="M 127.929688 212.964844 C 127.285156 212.964844 126.691406 212.550781 126.492188 211.90625 C 126.246094 211.109375 126.691406 210.261719 127.484375 210.011719 C 127.828125 209.910156 135.835938 207.285156 135.835938 200.398438 C 135.835938 189.226562 121.695312 186.371094 106.730469 183.359375 C 90.261719 180.035156 73.234375 176.597656 73.234375 161.296875 C 73.234375 156.089844 76.359375 151.4375 81.1875 149.433594 C 86.898438 147.070312 93.609375 148.957031 99.136719 154.484375 C 99.722656 155.070312 99.722656 156.035156 99.136719 156.621094 C 98.546875 157.210938 97.585938 157.210938 96.996094 156.621094 C 92.296875 151.921875 86.960938 150.316406 82.347656 152.226562 C 78.652344 153.757812 76.257812 157.324219 76.257812 161.296875 C 76.257812 174.125 91.34375 177.164062 107.320312 180.390625 C 122.816406 183.515625 138.847656 186.753906 138.847656 200.398438 C 138.847656 209.519531 128.804688 212.765625 128.382812 212.898438 C 128.234375 212.941406 128.074219 212.964844 127.929688 212.964844 Z M 127.929688 212.964844 " fill-opacity="1" fill-rule="nonzero"/></g><g clip-path="url(#5f14f6ec1f)"><path fill="#ffbd6b" d="M 109.25 150.96875 L 109.25 155.558594 C 109.25 156.964844 108.113281 158.101562 106.707031 158.101562 L 98.609375 158.101562 C 97.203125 158.101562 96.066406 156.964844 96.066406 155.558594 L 96.066406 150.96875 C 96.066406 149.5625 97.203125 148.421875 98.609375 148.421875 L 106.707031 148.421875 C 108.113281 148.421875 109.25 149.5625 109.25 150.96875 Z M 120.433594 213.144531 L 120.433594 209.472656 L 84.894531 209.472656 L 84.894531 213.144531 C 84.894531 215.605469 86.882812 217.589844 89.339844 217.589844 L 115.988281 217.589844 C 118.4375 217.589844 120.433594 215.605469 120.433594 213.144531 Z M 120.433594 213.144531 " fill-opacity="1" fill-rule="nonzero"/></g><path fill="#d60808" d="M 120.234375 211.691406 L 85.085938 211.691406 C 82.554688 211.691406 80.574219 209.503906 80.828125 206.992188 L 85.386719 161.304688 C 85.753906 157.617188 88.863281 154.800781 92.574219 154.800781 L 112.757812 154.800781 C 116.472656 154.800781 119.582031 157.617188 119.945312 161.304688 L 124.503906 206.984375 C 124.742188 209.503906 122.769531 211.691406 120.234375 211.691406 Z M 120.234375 211.691406 " fill-opacity="1" fill-rule="nonzero"/><path fill="#ff3131" d="M 122.300781 185.011719 L 122.632812 188.328125 L 83.476562 211.375 C 82.46875 210.960938 81.65625 210.179688 81.203125 209.203125 Z M 114.421875 211.691406 L 124.375 205.832031 L 124.042969 202.515625 L 108.464844 211.691406 Z M 81.554688 199.730469 L 81.179688 203.453125 L 121.761719 179.574219 L 121.425781 176.257812 Z M 92.71875 211.691406 L 98.683594 211.691406 L 123.507812 197.082031 L 123.175781 193.765625 Z M 85.5625 160.3125 C 85.480469 160.636719 85.417969 160.964844 85.386719 161.304688 L 85.109375 164.089844 L 100.886719 154.800781 L 94.921875 154.800781 Z M 110.667969 154.800781 L 84.496094 170.203125 L 84.121094 173.933594 L 115.613281 155.40625 C 114.730469 155.023438 113.769531 154.808594 112.75 154.808594 L 110.667969 154.808594 Z M 82.53125 189.886719 L 82.15625 193.617188 L 120.886719 170.824219 L 120.550781 167.507812 Z M 119.300781 158.984375 L 83.519531 180.042969 L 83.144531 183.769531 L 120.019531 162.070312 L 119.9375 161.304688 C 119.859375 160.480469 119.628906 159.707031 119.300781 158.984375 Z M 119.300781 158.984375 " fill-opacity="1" fill-rule="nonzero"/><g clip-path="url(#f7a886c779)"><path fill="#ff3131" d="M 132.464844 191.929688 C 132.128906 191.929688 131.796875 191.820312 131.515625 191.597656 C 126.148438 187.269531 116.273438 185.28125 106.722656 183.359375 C 90.261719 180.035156 73.234375 176.597656 73.234375 161.296875 C 73.234375 160.464844 73.910156 159.789062 74.746094 159.789062 C 75.582031 159.789062 76.257812 160.464844 76.257812 161.296875 C 76.257812 174.125 91.34375 177.171875 107.320312 180.390625 C 117.679688 182.484375 127.46875 184.453125 133.410156 189.242188 C 134.0625 189.765625 134.164062 190.722656 133.640625 191.367188 C 133.339844 191.730469 132.902344 191.929688 132.464844 191.929688 Z M 132.464844 191.929688 " fill-opacity="1" fill-rule="nonzero"/></g></svg>